<svg width="1447" height="2599" viewBox="0 0 1447 2599" fill="none" xmlns="http://www.w3.org/2000/svg">
<g clip-path="url(#clip0_32_104)">
<rect width="2599" height="1447" transform="matrix(0 -1 1 0 0 2599)" fill="#278B61"/>
<path d="M331.357 612.243C331.357 605.615 336.73 600.243 343.357 600.243L1106.91 600.243C1113.54 600.243 1118.91 605.615 1118.91 612.243L1118.91 1365.88V1389C1118.91 1395.63 1113.54 1401 1106.91 1401L343.357 1401C336.73 1401 331.357 1395.63 331.357 1389L331.357 612.243Z" fill="#F1F5F9"/>
<path d="M380.375 651.664C380.375 645.037 385.748 639.664 392.375 639.664L1057.89 639.664C1064.52 639.664 1069.89 645.037 1069.89 651.664L1069.89 1329.91V1349.58C1069.89 1356.21 1064.52 1361.58 1057.89 1361.58L392.375 1361.58C385.748 1361.58 380.375 1356.21 380.375 1349.58L380.375 651.664Z" fill="#278B61"/>
<path d="M266 689.55C266 685.132 269.582 681.55 274 681.55H369.107C373.525 681.55 377.107 685.132 377.107 689.55L377.107 993.853C377.107 998.271 373.525 1001.85 369.107 1001.85H274C269.582 1001.85 266 998.271 266 993.853L266 689.55Z" fill="#F1F5F9"/>
<path d="M292.143 716.652C292.143 712.234 295.724 708.652 300.143 708.652H326.429C329.151 708.652 331.357 710.858 331.357 713.58V713.58L331.357 971.054V971.054C331.357 973.095 329.702 974.75 327.661 974.75H300.143C295.724 974.75 292.143 971.168 292.143 966.75L292.143 716.652Z" fill="#278B61"/>
<rect x="726.768" y="447.482" width="290.839" height="179.862" rx="12" fill="#F1F5F9"/>
<rect x="756.179" y="344" width="232.018" height="133.049" rx="12" fill="#F1F5F9"/>
<path d="M1082.96 711.117C1082.96 694.788 1103.22 681.55 1128.21 681.55H1135.75C1160.74 681.55 1181 694.788 1181 711.117V824.455C1181 840.784 1160.74 854.021 1135.75 854.021H1128.21C1103.22 854.021 1082.96 840.784 1082.96 824.455V711.117Z" fill="#F1F5F9"/>
<path d="M1109.11 719.74C1109.11 719.06 1109.66 718.509 1110.34 718.509H1139.59C1146.22 718.509 1151.59 723.881 1151.59 730.509V802.599C1151.59 809.227 1146.22 814.599 1139.59 814.599H1111.57C1110.21 814.599 1109.11 813.496 1109.11 812.136V812.136V719.74V719.74Z" fill="#278B61"/>
<path d="M756.179 472.73C756.179 468.312 759.76 464.73 764.179 464.73L973.661 464.73C978.079 464.73 981.661 468.312 981.661 472.73V593.707C981.661 597.317 978.735 600.243 975.125 600.243V600.243H762.714V600.243C759.105 600.243 756.179 597.317 756.179 593.707V472.73Z" fill="#278B61"/>
<path d="M331.357 1812.91C331.357 1806.28 336.73 1800.91 343.357 1800.91L1106.91 1800.91C1113.54 1800.91 1118.91 1806.28 1118.91 1812.91L1118.91 2383.29V2398C1118.91 2404.63 1113.54 2410 1106.91 2410H343.357C336.73 2410 331.357 2404.63 331.357 2398L331.357 1812.91Z" fill="#F1F5F9"/>
<path d="M380.375 1842.9C380.375 1836.27 385.748 1830.9 392.375 1830.9L1057.89 1830.9C1064.52 1830.9 1069.89 1836.27 1069.89 1842.9V2355.93V2368.01C1069.89 2374.64 1064.52 2380.01 1057.89 2380.01H392.375C385.748 2380.01 380.375 2374.64 380.375 2368.01L380.375 1842.9Z" fill="#278B61"/>
<path d="M266 1870.76C266 1866.34 269.582 1862.76 274 1862.76H369.107C373.525 1862.76 377.107 1866.34 377.107 1870.76L377.107 2098.39C377.107 2102.81 373.525 2106.39 369.107 2106.39H274C269.582 2106.39 266 2102.81 266 2098.39L266 1870.76Z" fill="#F1F5F9"/>
<path d="M292.143 1891.37C292.143 1886.95 295.724 1883.37 300.143 1883.37H327.609C329.679 1883.37 331.357 1885.05 331.357 1887.12V1887.12L331.357 2082.96V2082.96C331.357 2084.52 330.098 2085.78 328.546 2085.78H300.143C295.724 2085.78 292.143 2082.19 292.143 2077.78L292.143 1891.37Z" fill="#278B61"/>
<rect x="726.768" y="1684.71" width="290.839" height="136.811" rx="12" fill="#F1F5F9"/>
<rect x="756.179" y="1606" width="232.018" height="101.203" rx="12" fill="#F1F5F9"/>
<path d="M1082.96 1885.24C1082.96 1872.82 1103.22 1862.76 1128.21 1862.76H1135.75C1160.74 1862.76 1181 1872.82 1181 1885.24V1971.45C1181 1983.88 1160.74 1993.94 1135.75 1993.94H1128.21C1103.22 1993.94 1082.96 1983.88 1082.96 1971.45V1885.24Z" fill="#F1F5F9"/>
<path d="M1109.11 1891.8C1109.11 1891.29 1109.53 1890.87 1110.04 1890.87H1139.59C1146.22 1890.87 1151.59 1896.24 1151.59 1902.87V1951.96C1151.59 1958.59 1146.22 1963.96 1139.59 1963.96H1110.98C1109.95 1963.96 1109.11 1963.12 1109.11 1962.08V1962.08V1891.8V1891.8Z" fill="#278B61"/>
<path d="M756.179 1705.83C756.179 1701.41 759.76 1697.83 764.179 1697.83H973.661C978.079 1697.83 981.661 1701.41 981.661 1705.83V1794.37C981.661 1797.98 978.735 1800.91 975.125 1800.91V1800.91H762.714V1800.91C759.105 1800.91 756.179 1797.98 756.179 1794.37V1705.83Z" fill="#278B61"/>
<rect x="130" y="1891" width="1056" height="1187" transform="rotate(-90 130 1891)" fill="#278B61"/>
</g>
<defs>
<clipPath id="clip0_32_104">
<rect width="2599" height="1447" fill="white" transform="matrix(0 -1 1 0 0 2599)"/>
</clipPath>
</defs>
</svg>
