<svg width="2599" height="1447" viewBox="0 0 2599 1447" fill="none" xmlns="http://www.w3.org/2000/svg">
<rect width="2599" height="1447" fill="#278B61"/>
<path d="M2219.06 420.571C2225.69 420.571 2231.06 425.944 2231.06 432.571V1017.96C2231.06 1024.58 2225.69 1029.96 2219.06 1029.96H1340.84H1312C1305.37 1029.96 1300 1024.58 1300 1017.96V432.571C1300 425.944 1305.37 420.571 1312 420.571L2219.06 420.571Z" fill="#F1F5F9"/>
<path d="M2173.22 458.5C2179.85 458.5 2185.22 463.873 2185.22 470.5V980.029C2185.22 986.656 2179.85 992.029 2173.22 992.029L1382.65 992.029H1357.84C1351.21 992.029 1345.84 986.656 1345.84 980.029V470.5C1345.84 463.873 1351.21 458.5 1357.84 458.5L2173.22 458.5Z" fill="#278B61"/>
<path d="M2128.52 370C2132.94 370 2136.52 373.582 2136.52 378V447.971C2136.52 452.39 2132.94 455.971 2128.52 455.971H1772.1C1767.68 455.971 1764.1 452.39 1764.1 447.971V378C1764.1 373.582 1767.68 370 1772.1 370L2128.52 370Z" fill="#F1F5F9"/>
<path d="M2097.01 390.229C2101.43 390.229 2105.01 393.81 2105.01 398.229V414.842C2105.01 418.006 2102.45 420.571 2099.28 420.571V420.571L1799.91 420.571V420.571C1797.54 420.571 1795.61 418.647 1795.61 416.274V398.229C1795.61 393.81 1799.19 390.229 1803.61 390.229L2097.01 390.229Z" fill="#278B61"/>
<rect x="2408.68" y="726.529" width="225.043" height="209.131" rx="12" transform="rotate(90 2408.68 726.529)" fill="#F1F5F9"/>
<rect x="2529" y="749.286" width="179.529" height="154.699" rx="12" transform="rotate(90 2529 749.286)" fill="#F1F5F9"/>
<path d="M2102.14 1002.14C2121.13 1002.14 2136.52 1017.82 2136.52 1037.15V1042.99C2136.52 1062.33 2121.13 1078 2102.14 1078H1970.36C1951.38 1078 1935.99 1062.33 1935.99 1042.99V1037.15C1935.99 1017.82 1951.38 1002.14 1970.36 1002.14H2102.14Z" fill="#F1F5F9"/>
<path d="M2092.12 1022.37C2092.91 1022.37 2093.55 1023.01 2093.55 1023.8V1043.24C2093.55 1049.87 2088.18 1055.24 2081.55 1055.24H1993.82C1987.2 1055.24 1981.82 1049.87 1981.82 1043.24V1025.24C1981.82 1023.65 1983.11 1022.37 1984.69 1022.37V1022.37H2092.12V1022.37Z" fill="#278B61"/>
<path d="M2380.62 749.286C2385.04 749.286 2388.62 752.867 2388.62 757.286V915.757C2388.62 920.175 2385.04 923.757 2380.62 923.757H2236.12C2233.32 923.757 2231.06 921.493 2231.06 918.7V918.7V754.343V754.343C2231.06 751.55 2233.32 749.286 2236.12 749.286H2380.62Z" fill="#278B61"/>
<path d="M1012.06 423.571C1018.69 423.571 1024.06 428.944 1024.06 435.571V1020.96C1024.06 1027.58 1018.69 1032.96 1012.06 1032.96H133.836H105C98.3725 1032.96 92.9999 1027.58 92.9999 1020.96L92.9999 435.571C92.9999 428.944 98.3725 423.571 105 423.571L1012.06 423.571Z" fill="#F1F5F9"/>
<path d="M966.224 461.5C972.852 461.5 978.224 466.873 978.224 473.5L978.224 983.029C978.224 989.656 972.852 995.029 966.224 995.029L175.652 995.029H150.837C144.21 995.029 138.837 989.656 138.837 983.029L138.837 473.5C138.837 466.873 144.21 461.5 150.837 461.5L966.224 461.5Z" fill="#278B61"/>
<path d="M921.522 373C925.941 373 929.522 376.582 929.522 381V450.971C929.522 455.39 925.941 458.971 921.522 458.971H565.098C560.68 458.971 557.098 455.39 557.098 450.971V381C557.098 376.582 560.68 373 565.098 373L921.522 373Z" fill="#F1F5F9"/>
<path d="M890.01 393.229C894.429 393.229 898.01 396.81 898.01 401.229V417.842C898.01 421.006 895.445 423.571 892.281 423.571V423.571L592.909 423.571V423.571C590.536 423.571 588.612 421.647 588.612 419.274V401.229C588.612 396.81 592.193 393.229 596.612 393.229L890.01 393.229Z" fill="#278B61"/>
<rect x="1201.68" y="729.529" width="225.043" height="209.131" rx="12" transform="rotate(90 1201.68 729.529)" fill="#F1F5F9"/>
<rect x="1322" y="752.286" width="179.529" height="154.699" rx="12" transform="rotate(90 1322 752.286)" fill="#F1F5F9"/>
<path d="M895.145 1005.14C914.131 1005.14 929.522 1020.82 929.522 1040.15V1045.99C929.522 1065.33 914.131 1081 895.145 1081H763.364C744.378 1081 728.986 1065.33 728.986 1045.99V1040.15C728.986 1020.82 744.378 1005.14 763.364 1005.14H895.145Z" fill="#F1F5F9"/>
<path d="M885.117 1025.37C885.908 1025.37 886.55 1026.01 886.55 1026.8V1046.24C886.55 1052.87 881.177 1058.24 874.55 1058.24H786.823C780.195 1058.24 774.823 1052.87 774.823 1046.24V1028.24C774.823 1026.65 776.105 1025.37 777.687 1025.37V1025.37H885.117V1025.37Z" fill="#278B61"/>
<path d="M1173.62 752.286C1178.04 752.286 1181.62 755.867 1181.62 760.286V918.757C1181.62 923.175 1178.04 926.757 1173.62 926.757H1029.12C1026.32 926.757 1024.06 924.493 1024.06 921.7V921.7V757.343V757.343C1024.06 754.55 1026.32 752.286 1029.12 752.286H1173.62Z" fill="#278B61"/>
<rect x="683" y="130" width="1233" height="1187" fill="#278B61"/>
</svg>