<svg width="1604" height="457" viewBox="0 0 1604 457" fill="none" xmlns="http://www.w3.org/2000/svg">
<g clip-path="url(#clip0_29_17)">
<rect width="1604" height="457" fill="#064E3B"/>
<path d="M437.121 87.5C443.749 87.5 449.121 92.8726 449.121 99.5L449.121 358.675C449.121 365.302 443.749 370.675 437.121 370.675L78.9789 370.675H73.9999C67.3725 370.675 61.9999 365.302 61.9999 358.675L61.9999 99.5C61.9999 92.8726 67.3725 87.5 73.9999 87.5L437.121 87.5Z" fill="#479A63"/>
<path d="M418.063 105.125C424.69 105.125 430.063 110.498 430.063 117.125V341.05C430.063 347.677 424.69 353.05 418.063 353.05L96.3655 353.05H93.0583C86.4309 353.05 81.0583 347.677 81.0583 341.05L81.0583 117.125C81.0583 110.498 86.4309 105.125 93.0583 105.125L418.063 105.125Z" fill="#064E3B"/>
<rect x="409.813" y="64" width="39.95" height="154.848" rx="8" transform="rotate(90 409.813 64)" fill="#479A63"/>
<path d="M389.661 73.4C393.555 73.4 396.711 76.5564 396.711 80.45V85.1177C396.711 86.4334 395.644 87.5 394.329 87.5V87.5L269.854 87.5V87.5C268.868 87.5 268.068 86.7001 268.068 85.7133V80.45C268.068 76.5564 271.224 73.4 275.118 73.4L389.661 73.4Z" fill="#064E3B"/>
<rect x="522.972" y="229.675" width="104.575" height="86.9534" rx="12" transform="rotate(90 522.972 229.675)" fill="#479A63"/>
<rect x="573" y="240.25" width="83.425" height="64.3217" rx="12" transform="rotate(90 573 240.25)" fill="#479A63"/>
<path d="M395.52 357.75C403.414 357.75 409.813 365.034 409.813 374.019V376.731C409.813 385.716 403.414 393 395.52 393H340.727C332.833 393 326.434 385.716 326.434 376.731V374.019C326.434 365.034 332.833 357.75 340.727 357.75H395.52Z" fill="#479A63"/>
<path d="M391.351 367.15C391.68 367.15 391.946 367.417 391.946 367.746V374.787C391.946 379.006 388.527 382.425 384.309 382.425H353.129C348.911 382.425 345.492 379.006 345.492 374.787V368.341C345.492 367.683 346.025 367.15 346.683 367.15V367.15H391.351V367.15Z" fill="#064E3B"/>
<path d="M506.634 240.25C511.052 240.25 514.634 243.832 514.634 248.25V313.325C514.634 317.743 511.052 321.325 506.634 321.325H451.471C450.173 321.325 449.121 320.273 449.121 318.975V318.975V242.6V242.6C449.121 241.302 450.173 240.25 451.471 240.25H506.634Z" fill="#064E3B"/>
<path d="M613.866 174.273L650.781 290.31H652.197L689.186 174.273H724.982L672.332 327H630.72L577.996 174.273H613.866ZM749.386 327H714.784L767.507 174.273H809.119L861.769 327H827.166L788.91 209.173H787.717L749.386 327ZM747.223 266.968H828.956V292.174H747.223V266.968ZM880.151 327V174.273H940.407C951.991 174.273 961.859 176.485 970.013 180.91C978.166 185.285 984.381 191.375 988.656 199.18C992.981 206.936 995.144 215.885 995.144 226.027C995.144 236.169 992.957 245.118 988.582 252.874C984.207 260.629 977.868 266.67 969.565 270.995C961.312 275.32 951.319 277.483 939.586 277.483H901.181V251.606H934.366C940.581 251.606 945.702 250.537 949.729 248.399C953.805 246.212 956.838 243.204 958.827 239.376C960.865 235.498 961.884 231.048 961.884 226.027C961.884 220.956 960.865 216.531 958.827 212.753C956.838 208.925 953.805 205.967 949.729 203.879C945.652 201.741 940.481 200.672 934.217 200.672H912.442V327H880.151ZM1016.12 327V174.273H1119.03V200.896H1048.41V237.288H1113.74V263.911H1048.41V300.377H1119.33V327H1016.12ZM1144.7 327V174.273H1204.96C1216.49 174.273 1226.34 176.336 1234.49 180.462C1242.69 184.539 1248.93 190.331 1253.21 197.838C1257.53 205.295 1259.69 214.07 1259.69 224.163C1259.69 234.305 1257.51 243.03 1253.13 250.338C1248.76 257.597 1242.42 263.165 1234.12 267.043C1225.86 270.92 1215.87 272.859 1204.14 272.859H1163.79V246.908H1198.92C1205.08 246.908 1210.2 246.062 1214.28 244.372C1218.36 242.682 1221.39 240.146 1223.38 236.766C1225.42 233.385 1226.43 229.184 1226.43 224.163C1226.43 219.092 1225.42 214.816 1223.38 211.336C1221.39 207.856 1218.33 205.221 1214.2 203.431C1210.13 201.592 1204.98 200.672 1198.77 200.672H1176.99V327H1144.7ZM1227.18 257.497L1265.14 327H1229.49L1192.35 257.497H1227.18ZM1365.37 218.197C1364.77 212.181 1362.21 207.508 1357.68 204.177C1353.16 200.846 1347.02 199.18 1339.27 199.18C1334 199.18 1329.55 199.926 1325.92 201.418C1322.29 202.859 1319.5 204.873 1317.56 207.458C1315.67 210.043 1314.73 212.977 1314.73 216.258C1314.63 218.992 1315.2 221.379 1316.45 223.417C1317.74 225.455 1319.5 227.22 1321.74 228.712C1323.98 230.153 1326.56 231.421 1329.5 232.515C1332.43 233.559 1335.56 234.454 1338.89 235.2L1352.61 238.481C1359.28 239.972 1365.39 241.961 1370.96 244.447C1376.53 246.933 1381.35 249.99 1385.43 253.619C1389.5 257.249 1392.66 261.524 1394.9 266.446C1397.18 271.368 1398.35 277.011 1398.4 283.374C1398.35 292.721 1395.97 300.825 1391.24 307.685C1386.57 314.496 1379.81 319.791 1370.96 323.57C1362.16 327.298 1351.54 329.163 1339.12 329.163C1326.79 329.163 1316.05 327.273 1306.9 323.495C1297.8 319.717 1290.69 314.124 1285.57 306.716C1280.5 299.259 1277.84 290.036 1277.59 279.049H1308.84C1309.19 284.17 1310.65 288.445 1313.24 291.876C1315.87 295.256 1319.38 297.817 1323.75 299.557C1328.18 301.247 1333.17 302.092 1338.74 302.092C1344.21 302.092 1348.96 301.297 1352.99 299.706C1357.06 298.115 1360.22 295.903 1362.46 293.069C1364.69 290.235 1365.81 286.979 1365.81 283.3C1365.81 279.869 1364.79 276.986 1362.76 274.649C1360.77 272.312 1357.83 270.324 1353.96 268.683C1350.13 267.043 1345.43 265.551 1339.86 264.209L1323.23 260.033C1310.36 256.901 1300.19 252.004 1292.73 245.342C1285.27 238.68 1281.57 229.706 1281.62 218.42C1281.57 209.173 1284.03 201.094 1289 194.184C1294.02 187.273 1300.91 181.879 1309.66 178.001C1318.41 174.124 1328.35 172.185 1339.49 172.185C1350.82 172.185 1360.72 174.124 1369.17 178.001C1377.67 181.879 1384.28 187.273 1389.01 194.184C1393.73 201.094 1396.16 209.099 1396.31 218.197H1365.37ZM1418.48 327V307.835L1494.7 200.896H1418.33V174.273H1535.26V193.438L1458.97 300.377H1535.41V327H1418.48Z" fill="#479A63"/>
</g>
<defs>
<clipPath id="clip0_29_17">
<rect width="1604" height="457" fill="white"/>
</clipPath>
</defs>
</svg>
