<svg width="540" height="360" viewBox="0 0 540 360" fill="none" xmlns="http://www.w3.org/2000/svg">
<path d="M397.091 25.7143C403.718 25.7143 409.091 31.0869 409.091 37.7143L409.091 323.571C409.091 330.199 403.718 335.571 397.091 335.571L17.9427 335.571H12.0002C5.37274 335.571 0.000155091 330.199 0.000155091 323.571L0.000155091 37.7143C0.000155091 31.0869 5.37274 25.7143 12.0002 25.7143L397.091 25.7143Z" fill="#479A63"/>
<path d="M376.951 45C383.578 45 388.951 50.3726 388.951 57L388.951 304.286C388.951 310.913 383.578 316.286 376.951 316.286L36.3157 316.286H32.1397C25.5123 316.286 20.1397 310.913 20.1397 304.286L20.1397 57C20.1397 50.3726 25.5123 45 32.1397 45L376.951 45Z" fill="#1F2937"/>
<rect x="367.553" width="43.7143" height="163.636" rx="8" transform="rotate(90 367.553 0)" fill="#479A63"/>
<path d="M345.992 10.2857C350.253 10.2857 353.707 13.7395 353.707 18V23.1968C353.707 24.5872 352.579 25.7143 351.189 25.7143V25.7143L219.651 25.7143V25.7143C218.608 25.7143 217.762 24.8689 217.762 23.8262V18C217.762 13.7395 221.216 10.2857 225.477 10.2857L345.992 10.2857Z" fill="#1F2937"/>
<rect x="487.133" y="181.286" width="114.429" height="91.8881" rx="12" transform="rotate(90 487.133 181.286)" fill="#479A63"/>
<rect x="540" y="192.857" width="91.2857" height="67.972" rx="12" transform="rotate(90 540 192.857)" fill="#479A63"/>
<path d="M352.448 321.429C360.79 321.429 367.553 329.399 367.553 339.231V342.198C367.553 352.03 360.79 360 352.448 360H294.546C286.204 360 279.441 352.03 279.441 342.198V339.231C279.441 329.399 286.204 321.429 294.546 321.429H352.448Z" fill="#479A63"/>
<path d="M348.042 331.714C348.39 331.714 348.671 331.996 348.671 332.344V340.071C348.671 344.687 344.93 348.429 340.314 348.429H307.938C303.322 348.429 299.58 344.687 299.58 340.071V332.973C299.58 332.278 300.144 331.714 300.839 331.714V331.714H348.042V331.714Z" fill="#1F2937"/>
<path d="M470.322 192.857C474.74 192.857 478.322 196.439 478.322 200.857V273.571C478.322 277.99 474.74 281.571 470.322 281.571H411.662C410.242 281.571 409.091 280.42 409.091 279V279V195.429V195.429C409.091 194.008 410.242 192.857 411.662 192.857L470.322 192.857Z" fill="#1F2937"/>
</svg>
