<svg width="1351" height="280" viewBox="0 0 1351 280" fill="none" xmlns="http://www.w3.org/2000/svg">
<path d="M447.92 76.5455L483.077 187.057H484.426L519.653 76.5455H553.744L503.602 222H463.972L413.759 76.5455H447.92ZM576.987 222H544.032L594.245 76.5455H633.876L684.018 222H651.063L614.629 109.784H613.492L576.987 222ZM574.927 164.827H652.768V188.832H574.927V164.827ZM701.525 222V76.5455H758.911C769.943 76.5455 779.342 78.6525 787.107 82.8665C794.872 87.0331 800.791 92.8333 804.863 100.267C808.982 107.653 811.042 116.176 811.042 125.835C811.042 135.494 808.959 144.017 804.792 151.403C800.625 158.79 794.588 164.543 786.681 168.662C778.821 172.781 769.304 174.841 758.13 174.841H721.553V150.196H753.158C759.077 150.196 763.954 149.178 767.789 147.142C771.672 145.059 774.56 142.194 776.454 138.548C778.395 134.855 779.366 130.617 779.366 125.835C779.366 121.006 778.395 116.792 776.454 113.193C774.56 109.547 771.672 106.73 767.789 104.741C763.906 102.705 758.982 101.688 753.016 101.688H732.278V222H701.525ZM831.017 222V76.5455H929.028V101.901H861.77V136.56H923.986V161.915H861.77V196.645H929.312V222H831.017ZM953.478 222V76.5455H1010.86C1021.85 76.5455 1031.22 78.5104 1038.99 82.4403C1046.8 86.3229 1052.74 91.839 1056.82 98.9886C1060.94 106.091 1063 114.448 1063 124.06C1063 133.719 1060.91 142.028 1056.75 148.989C1052.58 155.902 1046.54 161.205 1038.63 164.898C1030.77 168.591 1021.26 170.438 1010.08 170.438H971.66V145.722H1005.11C1010.98 145.722 1015.86 144.917 1019.74 143.307C1023.62 141.697 1026.51 139.282 1028.41 136.062C1030.35 132.843 1031.32 128.842 1031.32 124.06C1031.32 119.23 1030.35 115.158 1028.41 111.844C1026.51 108.529 1023.6 106.02 1019.67 104.315C1015.79 102.563 1010.89 101.688 1004.97 101.688H984.231V222H953.478ZM1032.03 155.807L1068.18 222H1034.23L998.862 155.807H1032.03ZM1163.63 118.378C1163.07 112.649 1160.63 108.198 1156.32 105.026C1152.01 101.853 1146.16 100.267 1138.78 100.267C1133.76 100.267 1129.52 100.977 1126.06 102.398C1122.61 103.771 1119.96 105.688 1118.11 108.151C1116.31 110.613 1115.41 113.406 1115.41 116.531C1115.32 119.135 1115.86 121.408 1117.04 123.349C1118.27 125.291 1119.96 126.972 1122.09 128.392C1124.22 129.765 1126.68 130.973 1129.47 132.014C1132.27 133.009 1135.25 133.861 1138.42 134.571L1151.49 137.696C1157.83 139.116 1163.66 141.01 1168.96 143.378C1174.26 145.745 1178.86 148.657 1182.74 152.114C1186.62 155.57 1189.63 159.642 1191.76 164.33C1193.94 169.017 1195.05 174.391 1195.1 180.452C1195.05 189.353 1192.78 197.071 1188.28 203.605C1183.83 210.092 1177.39 215.134 1168.96 218.733C1160.58 222.284 1150.47 224.06 1138.63 224.06C1126.89 224.06 1116.66 222.26 1107.95 218.662C1099.29 215.063 1092.52 209.737 1087.64 202.682C1082.81 195.58 1080.28 186.796 1080.04 176.332H1109.8C1110.13 181.209 1111.53 185.281 1113.99 188.548C1116.5 191.768 1119.84 194.206 1124 195.864C1128.22 197.473 1132.98 198.278 1138.28 198.278C1143.49 198.278 1148.01 197.521 1151.84 196.006C1155.73 194.491 1158.73 192.384 1160.86 189.685C1163 186.986 1164.06 183.884 1164.06 180.381C1164.06 177.114 1163.09 174.367 1161.15 172.142C1159.25 169.917 1156.46 168.023 1152.77 166.46C1149.12 164.898 1144.65 163.477 1139.34 162.199L1123.51 158.222C1111.24 155.239 1101.56 150.575 1094.46 144.23C1087.36 137.885 1083.83 129.339 1083.88 118.591C1083.83 109.784 1086.17 102.09 1090.91 95.5085C1095.69 88.9271 1102.25 83.7898 1110.58 80.0966C1118.91 76.4034 1128.38 74.5568 1138.99 74.5568C1149.78 74.5568 1159.21 76.4034 1167.26 80.0966C1175.35 83.7898 1181.65 88.9271 1186.15 95.5085C1190.65 102.09 1192.97 109.713 1193.11 118.378H1163.63ZM1214.22 222V203.747L1286.81 101.901H1214.08V76.5455H1325.44V94.7983L1252.79 196.645H1325.58V222H1214.22Z" fill="#278B61"/>
<path d="M307.697 20C314.324 20 319.697 25.3726 319.697 32L319.697 249C319.697 255.627 314.324 261 307.697 261L14.0219 261H12.0001C5.37266 261 6.90818e-05 255.627 6.90818e-05 249L6.90818e-05 32C6.90818e-05 25.3726 5.37265 20 12.0001 20L307.697 20Z" fill="#278B61"/>
<path d="M291.958 35C298.585 35 303.958 40.3726 303.958 47L303.958 234C303.958 240.627 298.585 246 291.958 246L28.3801 246H27.7389C21.1115 246 15.7389 240.627 15.7389 234L15.7389 47C15.7389 40.3726 21.1115 35 27.7389 35L291.958 35Z" fill="#F1F5F9"/>
<rect x="287.236" width="34" height="127.879" rx="8" transform="rotate(90 287.236 0)" fill="#278B61"/>
<path d="M270.415 8C273.729 8 276.415 10.6863 276.415 14V18.0326C276.415 19.1192 275.534 20 274.448 20V20L171.653 20V20C170.838 20 170.177 19.3394 170.177 18.5245V14C170.177 10.6863 172.864 8 176.177 8L270.415 8Z" fill="#F1F5F9"/>
<rect x="380.685" y="141" width="89" height="71.8089" rx="12" transform="rotate(90 380.685 141)" fill="#278B61"/>
<rect x="422" y="150" width="71" height="53.1189" rx="12" transform="rotate(90 422 150)" fill="#278B61"/>
<path d="M275.431 250C281.951 250 287.236 256.199 287.236 263.846V266.154C287.236 273.801 281.951 280 275.431 280H230.182C223.663 280 218.378 273.801 218.378 266.154V263.846C218.378 256.199 223.663 250 230.182 250H275.431Z" fill="#278B61"/>
<path d="M271.988 258C272.26 258 272.48 258.22 272.48 258.492V264.5C272.48 268.09 269.57 271 265.98 271H240.617C237.027 271 234.117 268.09 234.117 264.5V258.984C234.117 258.44 234.557 258 235.1 258V258H271.988V258Z" fill="#F1F5F9"/>
<path d="M365.8 150C370.218 150 373.8 153.582 373.8 158V211C373.8 215.418 370.218 219 365.8 219H321.697C320.592 219 319.697 218.105 319.697 217V217V152V152C319.697 150.895 320.592 150 321.697 150H365.8Z" fill="#F1F5F9"/>
</svg>
